<?xml version="1.0" standalone="no"?>
<!DOCTYPE svg PUBLIC "-//W3C//DTD SVG 20010904//EN"
 "http://www.w3.org/TR/2001/REC-SVG-20010904/DTD/svg10.dtd">
<svg version="1.0" xmlns="http://www.w3.org/2000/svg"
 width="160.000000pt" height="45.000000pt" viewBox="0 0 160.000000 45.000000"
 preserveAspectRatio="xMidYMid meet">

<g transform="translate(0.000000,45.000000) scale(0.100000,-0.100000)"
fill="#000000" stroke="none">
<path d="M298 333 l-58 -58 -55 55 -55 54 0 -157 c0 -103 3 -156 10 -152 6 4
10 57 10 126 0 65 4 119 8 119 4 0 26 -18 47 -40 l39 -40 43 42 43 42 0 -116
c0 -90 3 -118 15 -128 13 -11 15 7 15 149 0 88 -1 161 -3 161 -1 0 -28 -26
-59 -57z"/>
<path d="M465 290 c-3 -5 3 -10 14 -10 19 0 21 -6 21 -56 0 -34 4 -53 10 -49
6 3 10 28 10 56 0 43 3 49 21 49 11 0 17 5 14 10 -3 6 -24 10 -45 10 -21 0
-42 -4 -45 -10z"/>
<path d="M570 241 c0 -64 17 -93 22 -39 4 45 38 53 38 9 0 -16 5 -33 10 -36
16 -10 24 24 14 54 -7 19 -16 26 -37 26 -22 -1 -27 4 -27 22 0 13 -4 23 -10
23 -6 0 -10 -26 -10 -59z"/>
<path d="M680 290 c0 -5 5 -10 10 -10 6 0 10 5 10 10 0 6 -4 10 -10 10 -5 0
-10 -4 -10 -10z"/>
<path d="M840 235 l0 -65 35 0 c19 0 35 5 35 10 0 6 -11 10 -25 10 -24 0 -25
3 -25 55 0 30 -4 55 -10 55 -6 0 -10 -28 -10 -65z"/>
<path d="M1072 291 c2 -7 7 -12 11 -12 12 1 9 15 -3 20 -7 2 -11 -2 -8 -8z"/>
<path d="M1280 280 c-54 -54 12 -137 76 -95 32 21 33 77 2 99 -30 21 -54 20
-78 -4z m68 -12 c30 -30 2 -86 -38 -73 -19 6 -25 22 -20 55 4 28 37 39 58 18z"/>
<path d="M727 268 c-9 -25 6 -79 24 -88 10 -6 20 -6 23 -1 3 5 -1 11 -9 15
-20 7 -19 36 3 52 16 13 16 13 0 14 -10 0 -18 5 -18 10 0 14 -17 12 -23 -2z"/>
<path d="M180 213 c0 -33 5 -55 15 -63 13 -11 15 -8 15 15 0 24 2 26 15 15 12
-10 19 -10 27 -2 19 19 28 14 28 -14 0 -14 4 -23 10 -19 6 3 10 29 10 56 l0
50 -31 -22 -30 -21 -30 28 -29 28 0 -51z"/>
<path d="M680 214 c0 -27 4 -43 10 -39 6 3 10 24 10 46 0 21 -4 39 -10 39 -5
0 -10 -21 -10 -46z"/>
<path d="M930 246 c0 -7 5 -27 11 -45 12 -35 32 -37 37 -3 5 30 18 28 26 -4 9
-36 27 -26 41 24 11 35 11 42 -1 42 -8 0 -14 -9 -14 -20 0 -26 -16 -26 -23 1
-7 26 -31 20 -35 -9 -4 -27 -22 -19 -22 9 0 10 -4 19 -10 19 -5 0 -10 -6 -10
-14z"/>
<path d="M1070 221 c0 -22 5 -43 10 -46 6 -4 10 12 10 39 0 25 -4 46 -10 46
-5 0 -10 -18 -10 -39z"/>
<path d="M1120 213 c0 -27 4 -42 10 -38 6 3 10 19 10 36 0 22 5 29 20 29 16 0
20 -7 20 -35 0 -19 5 -35 11 -35 6 0 9 17 7 43 -3 41 -4 42 -40 44 l-38 1 0
-45z"/>
<path d="M1412 248 c-18 -18 -14 -56 7 -68 29 -15 39 -13 56 14 13 19 14 29 5
45 -12 23 -49 28 -68 9z m48 -27 c0 -11 -5 -23 -11 -27 -15 -9 -33 12 -26 30
9 23 37 20 37 -3z"/>
</g>
</svg>
