<?xml version="1.0" standalone="no"?>
<!DOCTYPE svg PUBLIC "-//W3C//DTD SVG 20010904//EN"
 "http://www.w3.org/TR/2001/REC-SVG-20010904/DTD/svg10.dtd">
<svg version="1.0" xmlns="http://www.w3.org/2000/svg"
 width="479.000000pt" height="105.000000pt" viewBox="0 0 479.000000 105.000000"
 preserveAspectRatio="xMidYMid meet">

<g transform="translate(0.000000,105.000000) scale(0.100000,-0.100000)"
fill="#000000" stroke="none">
<path d="M440 919 c-107 -21 -211 -102 -263 -206 -91 -179 -40 -438 105 -535
56 -38 109 -51 193 -46 211 10 384 218 385 460 0 170 -108 295 -284 327 -67
12 -73 12 -136 0z m151 -139 c50 -14 99 -49 126 -89 27 -40 31 -126 9 -169
-29 -56 -95 -98 -170 -108 -38 -6 -45 -10 -50 -35 -4 -20 -13 -30 -31 -35 -50
-12 -55 -3 -55 103 0 54 -3 114 -6 134 -7 43 14 69 56 69 40 0 49 -22 43 -107
-7 -85 -1 -88 74 -52 99 48 97 173 -3 215 -71 30 -184 10 -253 -45 -47 -37
-71 -40 -71 -8 0 24 47 75 90 98 72 37 170 49 241 29z m-93 -508 c-2 -22 -8
-27 -32 -27 -17 0 -33 7 -40 18 -9 15 -7 22 12 37 32 26 65 11 60 -28z"/>
<path d="M1030 697 l25 -13 0 -154 0 -154 -25 -13 c-22 -11 -15 -13 60 -12 47
1 76 4 65 6 -36 9 -45 24 -45 79 0 53 0 54 30 54 16 0 52 5 79 11 64 13 91 45
91 103 -1 80 -50 106 -202 106 -90 0 -100 -2 -78 -13z m202 -27 c12 -15 18
-39 18 -70 0 -62 -30 -90 -96 -90 l-44 0 0 96 0 97 52 -5 c38 -4 57 -12 70
-28z"/>
<path d="M3010 495 c0 -103 4 -165 10 -165 6 0 10 62 10 165 0 103 -4 165 -10
165 -6 0 -10 -62 -10 -165z"/>
<path d="M3592 600 c3 -62 -1 -70 -22 -45 -20 24 -77 19 -105 -10 -21 -20 -25
-34 -25 -88 0 -50 4 -68 20 -85 30 -32 68 -38 104 -18 20 11 32 14 34 7 2 -6
12 -11 23 -11 18 0 19 9 19 155 l0 155 -26 0 c-25 0 -26 -1 -22 -60z m-24 -76
c18 -12 22 -25 22 -68 0 -59 -12 -76 -51 -76 -50 0 -74 65 -48 124 10 22 20
28 49 35 3 0 16 -6 28 -15z"/>
<path d="M4620 505 l0 -155 25 0 25 0 0 155 0 155 -25 0 -25 0 0 -155z"/>
<path d="M3220 495 l0 -145 85 0 c69 0 85 3 85 15 0 12 -13 15 -60 15 l-60 0
0 50 0 50 55 0 c48 0 55 2 55 20 0 18 -7 20 -55 20 l-55 0 0 40 0 40 60 0 c53
0 60 2 60 20 0 18 -7 20 -85 20 l-85 0 0 -145z"/>
<path d="M1384 595 c-91 -47 -89 -203 4 -242 45 -19 97 -11 128 18 31 29 32
49 2 22 -32 -29 -53 -34 -88 -21 -33 11 -60 52 -60 93 0 25 1 25 85 25 l85 0
0 29 c0 68 -87 111 -156 76z m90 -17 c9 -12 16 -33 16 -45 0 -21 -4 -23 -61
-23 l-61 0 6 28 c8 31 40 62 67 62 10 0 25 -10 33 -22z"/>
<path d="M1640 603 c-44 -16 -67 -67 -35 -79 23 -9 46 15 39 41 -4 18 -1 25
15 30 47 15 78 -19 69 -75 -2 -18 -14 -26 -53 -37 -88 -26 -120 -78 -74 -124
17 -17 29 -20 56 -16 20 4 44 13 53 22 17 16 19 15 30 -4 6 -12 21 -21 35 -21
28 0 41 15 20 24 -12 4 -15 25 -15 101 0 88 -2 98 -25 120 -24 25 -76 32 -115
18z m90 -168 c0 -39 -4 -46 -29 -60 -34 -17 -58 -12 -66 16 -10 30 3 56 38 73
50 24 57 21 57 -29z"/>
<path d="M1850 600 c0 -5 5 -10 10 -10 16 0 13 -227 -2 -233 -7 -3 12 -5 42
-5 30 0 47 2 38 5 -15 4 -18 17 -18 92 0 62 4 93 16 109 19 28 40 28 47 1 6
-24 34 -23 50 3 8 12 7 21 -2 32 -18 22 -53 20 -85 -5 l-26 -20 0 20 c0 17 -6
21 -35 21 -19 0 -35 -4 -35 -10z"/>
<path d="M2103 600 c-43 -17 -58 -84 -25 -113 10 -9 38 -23 62 -32 24 -8 49
-20 57 -26 21 -18 15 -47 -12 -65 -21 -14 -30 -14 -55 -4 -17 7 -30 15 -30 19
0 3 -9 17 -20 31 l-20 25 0 -50 c0 -36 3 -46 11 -38 8 8 20 8 40 1 67 -23 129
14 129 78 0 38 -20 57 -84 81 -62 23 -77 44 -52 72 27 30 54 26 92 -15 l34
-35 0 38 0 38 -53 2 c-28 1 -62 -2 -74 -7z"/>
<path d="M2344 594 c-63 -31 -89 -135 -47 -192 94 -128 274 -28 222 122 -25
73 -105 105 -175 70z m109 -26 c24 -32 29 -138 9 -175 -28 -52 -91 -54 -117
-3 -30 57 -12 187 27 204 27 11 62 0 81 -26z"/>
<path d="M2550 601 c0 -5 7 -11 15 -15 12 -4 15 -26 15 -110 0 -89 -3 -107
-17 -115 -14 -8 -5 -10 37 -10 42 0 51 2 38 10 -15 8 -18 24 -18 88 0 70 3 81
25 105 19 21 33 27 58 24 l32 -3 3 -104 c2 -77 -1 -107 -10 -113 -8 -4 10 -7
42 -7 30 1 47 3 38 6 -16 4 -18 18 -18 109 0 93 -2 106 -21 125 -27 27 -90 21
-125 -12 l-24 -22 0 26 c0 24 -4 27 -35 27 -19 0 -35 -4 -35 -9z"/>
<path d="M3729 541 c-28 -28 -34 -51 -29 -111 4 -62 60 -97 135 -86 34 6 45
12 45 25 0 15 -7 17 -54 13 -47 -4 -55 -2 -70 19 -30 43 -22 49 59 49 l75 0 0
31 c0 45 -47 89 -95 89 -27 0 -44 -8 -66 -29z m105 -23 c24 -34 20 -38 -39
-38 -59 0 -67 8 -35 40 26 26 55 25 74 -2z"/>
<path d="M3936 558 c4 -7 21 -32 37 -56 l29 -43 -29 -42 c-47 -69 -46 -67 -20
-67 17 0 32 12 52 41 l27 41 25 -41 c18 -31 30 -41 49 -41 28 0 28 0 -18 68
l-29 43 35 49 c20 28 36 52 36 55 0 3 -10 5 -22 5 -16 0 -31 -13 -49 -41 l-27
-42 -27 42 c-20 29 -35 41 -52 41 -17 0 -22 -4 -17 -12z"/>
<path d="M4208 554 c-51 -27 -62 -140 -18 -184 38 -38 140 -35 140 4 0 11 -10
13 -40 9 -55 -8 -80 15 -80 72 0 60 17 78 68 73 30 -2 43 1 47 11 12 32 -68
42 -117 15z"/>
<path d="M4399 541 c-24 -24 -29 -38 -29 -76 0 -65 22 -102 69 -116 50 -15
111 -4 111 19 0 14 -8 16 -53 14 -56 -4 -68 3 -81 46 -7 21 -6 22 68 22 l76 0
0 35 c0 82 -100 116 -161 56z m103 -18 c33 -30 23 -43 -37 -43 -47 0 -54 2
-48 18 14 41 54 53 85 25z"/>
</g>
</svg>
