<?xml version="1.0" standalone="no"?>
<!DOCTYPE svg PUBLIC "-//W3C//DTD SVG 20010904//EN"
 "http://www.w3.org/TR/2001/REC-SVG-20010904/DTD/svg10.dtd">
<svg version="1.0" xmlns="http://www.w3.org/2000/svg"
 width="450.000000pt" height="450.000000pt" viewBox="0 0 450.000000 450.000000"
 preserveAspectRatio="xMidYMid meet">

<g transform="translate(0.000000,450.000000) scale(0.100000,-0.100000)"
fill="#000000" stroke="none">
<path d="M320 3041 c-124 -41 -200 -134 -200 -246 0 -116 68 -197 240 -284
174 -89 209 -144 136 -217 -33 -33 -37 -34 -110 -34 -79 0 -150 20 -233 67
-24 13 -43 20 -43 16 0 -15 38 -162 44 -171 11 -18 181 -52 257 -52 212 0 358
114 359 279 0 130 -54 201 -221 286 -139 71 -179 105 -179 151 0 42 26 69 80
84 43 12 105 0 183 -34 l37 -16 0 73 0 74 -37 12 c-44 15 -277 24 -313 12z"/>
<path d="M1054 2780 c-79 -26 -153 -91 -191 -168 -25 -51 -28 -68 -28 -157 0
-120 19 -170 90 -239 74 -72 134 -91 290 -91 104 1 141 5 184 20 l55 20 22 70
c12 39 21 71 19 73 -1 1 -23 -7 -49 -19 -193 -85 -358 -30 -368 122 l-3 44
208 3 207 2 0 45 c0 102 -71 215 -163 262 -71 36 -187 41 -273 13z m170 -122
c15 -13 29 -38 32 -55 l7 -33 -92 0 c-100 0 -105 4 -76 60 28 54 86 66 129 28z"/>
<path d="M2536 2784 c-142 -45 -225 -153 -234 -305 -10 -173 75 -298 237 -345
75 -22 253 -15 330 12 l55 19 22 70 c12 39 21 71 20 72 -1 1 -31 -10 -66 -25
-54 -22 -80 -27 -156 -27 -84 0 -93 2 -127 28 -46 35 -64 69 -69 127 l-3 45
208 3 207 2 0 45 c0 102 -71 215 -163 262 -65 33 -187 41 -261 17z m158 -126
c15 -13 29 -38 32 -55 l7 -33 -92 0 c-100 0 -105 4 -76 60 28 54 86 66 129 28z"/>
<path d="M3315 2786 c-114 -28 -204 -98 -248 -194 -33 -70 -31 -218 2 -286 33
-66 91 -122 160 -154 76 -36 235 -43 326 -15 l60 19 24 67 c13 37 22 70 19 72
-2 3 -29 -5 -59 -16 -66 -26 -153 -28 -195 -6 -73 38 -111 127 -101 238 12
133 100 188 227 140 l50 -19 0 78 0 77 -52 7 c-77 9 -156 6 -213 -8z"/>
<path d="M3907 2787 c-48 -12 -49 -14 -78 -80 -28 -68 -28 -68 -6 -61 87 28
172 31 205 8 15 -10 22 -25 22 -49 0 -43 -23 -56 -137 -79 -100 -20 -142 -37
-187 -76 -90 -79 -71 -227 37 -294 40 -24 62 -30 127 -34 l80 -5 25 57 c14 31
25 58 25 60 0 3 -13 7 -30 11 -42 9 -73 52 -66 89 3 16 11 35 18 43 12 15 81
53 96 53 5 0 12 -37 14 -83 6 -95 22 -132 74 -175 41 -34 100 -52 172 -52 l49
0 26 57 26 57 -37 13 c-20 7 -42 19 -48 28 -7 9 -13 82 -16 188 -5 187 -13
221 -64 269 -16 15 -47 35 -69 44 -51 21 -194 27 -258 11z"/>
<path d="M1658 2783 l-117 -4 19 -32 c18 -30 20 -51 20 -287 0 -231 -2 -259
-19 -293 l-19 -37 154 0 c85 0 154 3 154 8 -1 4 -7 18 -15 32 -18 31 -21 389
-4 438 23 66 106 65 135 -3 21 -50 20 -398 -1 -439 -8 -15 -15 -30 -15 -32 0
-2 70 -4 155 -4 l155 0 -20 37 c-18 34 -20 57 -20 235 0 173 -2 204 -20 251
-35 93 -96 131 -210 132 -64 0 -82 -4 -123 -28 l-47 -28 -6 30 c-4 21 -12 30
-23 29 -9 -1 -69 -4 -133 -5z"/>
<path d="M110 1671 c0 -213 1 -221 20 -221 17 0 19 8 22 78 l3 77 90 5 c102 6
146 24 170 70 20 38 19 105 -1 140 -31 51 -68 64 -191 68 l-113 4 0 -221z
m201 169 c46 -13 68 -38 76 -83 5 -32 1 -41 -30 -72 -35 -35 -36 -35 -121 -35
l-86 0 0 93 c0 52 3 97 7 100 10 10 113 8 154 -3z"/>
<path d="M601 1868 c-113 -56 -151 -216 -77 -326 77 -115 250 -130 343 -30
102 109 72 292 -58 358 -54 28 -150 27 -208 -2z m186 -35 c80 -38 118 -165 74
-250 -74 -145 -280 -120 -322 40 -41 150 109 277 248 210z"/>
<path d="M1010 1670 l0 -220 150 0 c143 0 150 1 150 20 0 19 -7 20 -125 20
l-125 0 0 200 0 200 -25 0 -25 0 0 -220z"/>
<path d="M1272 1858 c13 -18 54 -76 91 -129 l67 -97 0 -91 c0 -90 0 -91 25
-91 25 0 25 1 25 88 l0 87 91 130 c69 99 87 131 74 133 -29 6 -39 -4 -110
-111 -39 -59 -72 -106 -75 -107 -3 0 -39 50 -80 110 -66 98 -77 110 -103 110
l-29 0 24 -32z"/>
<path d="M1690 1870 c0 -18 7 -20 75 -20 l75 0 0 -200 c0 -193 1 -200 20 -200
19 0 20 8 22 198 l3 197 73 3 c64 3 72 5 72 22 0 19 -8 20 -170 20 -163 0
-170 -1 -170 -20z"/>
<path d="M2110 1670 l0 -220 155 0 c148 0 155 1 155 20 0 19 -7 20 -135 20
l-135 0 0 80 0 80 120 0 c113 0 120 1 120 20 0 19 -7 20 -120 20 l-120 0 0 80
0 80 135 0 c128 0 135 1 135 20 0 19 -7 20 -155 20 l-155 0 0 -220z"/>
<path d="M2584 1858 c-114 -76 -133 -244 -40 -346 59 -66 181 -86 262 -44 47
24 69 47 59 62 -9 15 -23 12 -53 -9 -155 -110 -344 58 -262 232 33 69 71 92
155 92 57 0 76 -4 103 -23 27 -20 35 -22 48 -11 13 10 12 14 -3 31 -28 32 -81
48 -153 48 -60 0 -73 -4 -116 -32z"/>
<path d="M2940 1670 l0 -220 25 0 25 0 0 100 0 100 130 0 130 0 0 -100 c0 -93
1 -100 20 -100 19 0 20 7 20 220 0 213 -1 220 -20 220 -19 0 -20 -7 -20 -100
l0 -100 -130 0 -130 0 0 100 0 100 -25 0 -25 0 0 -220z"/>
<path d="M3400 1670 c0 -212 1 -220 20 -220 19 0 20 8 22 181 l3 181 140 -181
c84 -108 147 -180 158 -180 16 -1 17 16 17 219 0 212 -1 220 -20 220 -19 0
-20 -8 -22 -176 l-3 -176 -138 176 c-94 120 -144 176 -158 176 -18 0 -19 -9
-19 -220z"/>
<path d="M3870 1670 l0 -220 25 0 25 0 0 220 0 220 -25 0 -25 0 0 -220z"/>
<path d="M4138 1876 c-41 -18 -88 -66 -109 -111 -43 -93 -8 -229 72 -282 79
-52 193 -49 263 7 31 23 34 30 21 40 -12 10 -22 8 -50 -10 -113 -70 -235 -26
-271 96 -14 49 -14 59 0 107 15 52 48 93 93 116 47 24 139 9 195 -31 15 -10
21 -10 34 4 16 15 14 19 -32 47 -42 27 -56 31 -118 30 -39 0 -83 -6 -98 -13z"/>
</g>
</svg>
